HIERARCHY
ROOT root
{
	OFFSET	0	13.1	24.9
	CHANNELS 6  Xposition Yposition Zposition Xrotation Yrotation Zrotation
	JOINT spine_1
	{
		OFFSET	0	9.99999	0
		CHANNELS 3  Xrotation Yrotation Zrotation
		JOINT spine_2
		{
			OFFSET	0	112	-10
			CHANNELS 3  Xrotation Yrotation Zrotation
			JOINT spine_3
			{
				OFFSET	0	206.5	19.3
				CHANNELS 3  Xrotation Yrotation Zrotation
				JOINT spine_4
				{
					OFFSET	0	110.4	14.6
					CHANNELS 3  Xrotation Yrotation Zrotation
					JOINT neck_1
					{
						OFFSET	0	71.8	-50.3
						CHANNELS 3  Xrotation Yrotation Zrotation
						JOINT neck_2
						{
							OFFSET	0	86.2	-25.8
							CHANNELS 3  Xrotation Yrotation Zrotation
							JOINT head_ee
							{
								OFFSET	0	179.8	-8.7
								CHANNELS 3  Xrotation Yrotation Zrotation
								End Site
								{
									OFFSET	1	0	0
								}
							}
						}
					}
					JOINT left_clavicle
					{
						OFFSET	-43.2	22.4	-70.8
						CHANNELS 3  Xrotation Yrotation Zrotation
						JOINT left_shoulder
						{
							OFFSET	-93.9	-5.79999	48.7
							CHANNELS 3  Xrotation Yrotation Zrotation
							JOINT left_elbow
							{
								OFFSET	-291.4	-30.8	15.2
								CHANNELS 3  Xrotation Yrotation Zrotation
								JOINT left_lowarm_twist
								{
									OFFSET	-110.7	-3.89999	13.6
									CHANNELS 3  Xrotation Yrotation Zrotation
									JOINT left_hand
									{
										OFFSET	-110.7	-3.89999	13.6
										CHANNELS 3  Xrotation Yrotation Zrotation
										JOINT left_ee
										{
											OFFSET	-80.8	-5.10001	12.1
											CHANNELS 3  Xrotation Yrotation Zrotation
											End Site
											{
												OFFSET	1	0	0
											}
										}
									}
								}
							}
						}
					}
					JOINT right_clavicle
					{
						OFFSET	43.2	22.4	-70.8
						CHANNELS 3  Xrotation Yrotation Zrotation
						JOINT right_shoulder
						{
							OFFSET	93.9	-5.79999	48.7
							CHANNELS 3  Xrotation Yrotation Zrotation
							JOINT right_elbow
							{
								OFFSET	291.4	-30.8	15.2
								CHANNELS 3  Xrotation Yrotation Zrotation
								JOINT right_lowarm_twist
								{
									OFFSET	110.7	-3.89999	13.6
									CHANNELS 3  Xrotation Yrotation Zrotation
									JOINT right_hand
									{
										OFFSET	110.7	-3.89999	13.6
										CHANNELS 3  Xrotation Yrotation Zrotation
										JOINT right_ee
										{
											OFFSET	80.8	-5.10001	12.1
											CHANNELS 3  Xrotation Yrotation Zrotation
											End Site
											{
												OFFSET	1	0	0
											}
										}
									}
								}
							}
						}
					}
				}
			}
		}
	}
	JOINT left_hip
	{
		OFFSET	-82.8	-127.5	0.300001
		CHANNELS 3  Xrotation Yrotation Zrotation
		JOINT left_knee
		{
			OFFSET	-28.2	-396.7	2.2
			CHANNELS 3  Xrotation Yrotation Zrotation
			JOINT left_ankle
			{
				OFFSET	-11.7	-411.3	35.4
				CHANNELS 3  Xrotation Yrotation Zrotation
				JOINT left_toes
				{
					OFFSET	0	-60	-88.6
					CHANNELS 3  Xrotation Yrotation Zrotation
					JOINT left_foot_ee
					{
						OFFSET	-22.5	-16.5	-42.2
						CHANNELS 3  Xrotation Yrotation Zrotation
						End Site
						{
							OFFSET	1	0	0
						}
					}
				}
			}
		}
	}
	JOINT right_hip
	{
		OFFSET	82.8	-127.5	0.300001
		CHANNELS 3  Xrotation Yrotation Zrotation
		JOINT right_knee
		{
			OFFSET	28.2	-396.7	2.2
			CHANNELS 3  Xrotation Yrotation Zrotation
			JOINT right_ankle
			{
				OFFSET	11.7	-411.3	35.4
				CHANNELS 3  Xrotation Yrotation Zrotation
				JOINT right_toes
				{
					OFFSET	0	-60	-88.6
					CHANNELS 3  Xrotation Yrotation Zrotation
					JOINT right_foot_ee
					{
						OFFSET	22.5	-16.5	-42.2
						CHANNELS 3  Xrotation Yrotation Zrotation
						End Site
						{
							OFFSET	1	0	0
						}
					}
				}
			}
		}
	}
}
MOTION
Frames: 7
Frame Time: 0.02
569.764577012 722.394 -1175.89524598 -154.774950078 -57.4783048699 -155.877684922 5.86283 -0.644345 -0.594029 5.86282 -0.605241 -0.633826 5.86947 -0.532521 -0.69604 5.86936 -0.635763 -0.603206 -17.4944 12.735 3.31919 -18.0803 22.6617 8.02473 -0.0 0.0 -0.0 7.20079 2.59451 13.9671 -41.9503 -33.8016 44.8789 0.891069 -23.8168 0.187918 21.5557 0.249349 -2.72606 0.773644 6.86017 7.92399 -0.0 0.0 -0.0 6.39106 -1.34221 -12.3975 -33.2049 9.64636 -57.8848 1.36748 34.1123 -0.419564 12.1082 -0.266786 1.52084 0.161513 2.51444 -0.021683 0.0 0.0 0.0 13.4919 -13.7563 0.552319 -21.6021 0.273161 3.28415 31.7458 8.82786 -4.07693 -16.5377 0.0 0.0 -0.0 0.0 -0.0 33.86 7.2967 4.853 -35.9974 0.231953 -5.42983 15.3239 -30.3885 2.31686 12.9369 -0.0 -0.0 0.0 0.0 0.0 
576.714882286 721.27 -1179.94923844 -154.06370012 -57.7326454824 -155.097204667 5.82995 -0.512956 -0.793275 5.83018 -0.461441 -0.824305 5.83652 -0.368304 -0.869917 5.83581 -0.501064 -0.800839 -16.7735 12.7038 3.58025 -17.2945 22.3873 8.08908 -0.0 0.0 -0.0 7.4616 2.23513 14.4814 -40.7766 -34.7419 44.3189 0.961598 -25.4702 0.21733 21.5912 0.24891 -2.73056 0.66396 6.09359 6.90008 -0.0 0.0 -0.0 6.29311 -1.60752 -12.2082 -33.515 9.38275 -57.8188 1.27092 32.1921 -0.366751 11.9106 -0.265027 1.49566 0.165554 2.08973 -0.227854 0.0 0.0 0.0 13.1175 -14.0549 1.05169 -20.5975 0.288057 3.13072 32.3883 7.44341 -4.1395 -16.5724 0.0 0.0 -0.0 0.0 -0.0 35.9498 7.9969 5.62689 -34.1185 0.135588 -5.15775 14.4858 -28.214 2.16363 12.7963 -0.0 -0.0 0.0 0.0 0.0 
589.208277896 717.652 -1178.77852671 -153.214233358 -57.5998524048 -154.984680151 5.8138 -0.310274 -0.803066 5.81412 -0.258546 -0.82118 5.81745 -0.16667 -0.844631 5.81658 -0.297967 -0.807713 -17.373 11.5568 3.25563 -17.8308 20.4189 7.45251 -0.0 0.0 -0.0 8.22035 1.07815 16.0049 -39.1745 -35.0686 43.3489 0.99714 -26.2867 0.232843 21.6949 0.247608 -2.74375 0.309155 4.90792 4.08713 -0.0 0.0 -0.0 6.00848 -1.98703 -11.6597 -34.0869 8.81569 -57.7713 1.17998 30.3064 -0.319569 12.2479 -0.267976 1.53865 0.312328 1.83802 -1.31831 0.0 0.0 0.0 12.8206 -13.9157 2.2806 -19.6356 0.299796 2.98361 34.1675 5.68893 -4.31689 -17.1142 0.0 0.0 -0.0 0.0 -0.0 39.1677 10.7415 2.80304 -32.1056 0.0423286 -4.86301 11.7935 -29.0648 1.78753 12.9957 -0.0 -0.0 0.0 0.0 0.0 
588.958755398 717.652 -1176.92546261 -153.589951949 -57.1192306313 -155.430859158 5.8138 -0.310274 -0.803066 5.81412 -0.258546 -0.82118 5.81745 -0.16667 -0.844631 5.81658 -0.297967 -0.807713 -17.373 11.5568 3.25563 -17.8308 20.4189 7.45251 -0.0 0.0 -0.0 8.22035 1.07815 16.0049 -39.1745 -35.0686 43.3489 0.99714 -26.2867 0.232843 21.6949 0.247608 -2.74375 0.309155 4.90792 4.08713 -0.0 0.0 -0.0 6.00848 -1.98703 -11.6597 -34.0869 8.81569 -57.7713 1.17998 30.3064 -0.319569 12.2479 -0.267976 1.53865 0.312328 1.83802 -1.31831 0.0 0.0 0.0 12.8206 -13.9157 2.2806 -19.6356 0.299796 2.98361 34.1675 5.68893 -4.31689 -17.1142 0.0 0.0 -0.0 0.0 -0.0 39.1677 10.7415 2.80304 -32.1056 0.0423286 -4.86301 11.7935 -29.0648 1.78753 12.9957 -0.0 -0.0 0.0 0.0 0.0 
600.704799623 715.257 -1176.04782503 -153.639074835 -57.3202724349 -155.34894596 5.65277 -0.233055 -0.933167 5.65324 -0.173206 -0.946104 5.6556 -0.0653885 -0.959602 5.65438 -0.216112 -0.937235 -18.6595 10.3276 2.24102 -19.1054 18.6962 6.2549 -0.0 0.0 -0.0 8.79546 0.403542 17.1787 -35.2169 -32.2267 44.6416 1.05954 -27.6927 0.261163 22.068 0.242726 -2.79116 -0.250092 0.691613 -1.37578 -0.0 0.0 -0.0 5.75905 -2.67863 -11.1871 -34.8102 9.30821 -57.0857 1.11779 28.9732 -0.288809 12.4904 -0.26994 1.56956 0.836195 4.13292 -3.88282 0.0 0.0 0.0 11.1403 -14.1575 2.77723 -17.114 0.318832 2.5972 35.5325 4.92674 -4.45006 -17.9128 0.0 0.0 -0.0 0.0 -0.0 42.0202 15.5455 0.383966 -32.9914 0.0820877 -4.9931 4.43911 -29.0098 0.686872 11.6732 -0.0 -0.0 0.0 0.0 0.0 
606.982503055 709.654 -1179.1598744 -152.350763361 -56.8703381018 -154.329060491 5.45128 -0.105851 -1.07477 5.45193 -0.0372503 -1.07932 5.452 0.0885748 -1.07633 5.45039 -0.0825124 -1.07681 -18.6213 10.2783 3.0754 -19.0235 18.1584 6.99245 -0.0 0.0 -0.0 9.08286 0.499043 17.7571 -35.9592 -35.2347 41.7881 1.0612 -27.7297 0.261937 21.9241 0.244646 -2.77288 -0.172582 1.56175 -0.490512 -0.0 0.0 -0.0 5.62698 -2.69252 -10.9346 -34.6908 9.08125 -56.883 1.10967 28.7967 -0.284889 12.6481 -0.271146 1.58967 0.588238 1.3114 -3.38903 0.0 0.0 0.0 11.8956 -13.2956 3.00737 -17.9888 0.314154 2.73135 36.8588 3.48601 -4.57777 -17.6735 0.0 0.0 -0.0 0.0 -0.0 42.6509 14.9397 2.37579 -29.4922 -0.0631801 -4.47586 6.6968 -26.7577 1.01563 12.622 -0.0 -0.0 0.0 0.0 0.0 
619.696775165 707.369 -1177.07562377 -151.173552986 -57.5097517542 -151.4387566 5.23357 -0.0917255 -1.50363 5.23483 0.00412917 -1.50642 5.23357 0.185095 -1.49501 5.23046 -0.0533097 -1.50548 -17.9988 10.0831 2.44881 -18.3842 18.0717 6.22451 -0.0 0.0 -0.0 9.82696 -0.609404 19.3251 -34.4972 -35.0518 41.1319 1.06791 -27.8785 0.265064 21.6624 0.248018 -2.73962 -0.273452 1.66838 -1.1158 -0.0 0.0 -0.0 5.65552 -2.13506 -10.9814 -34.988 8.25112 -57.2577 1.01996 26.8049 -0.243041 12.9882 -0.27356 1.63304 0.537076 0.14986 -3.52709 0.0 0.0 0.0 9.50828 -14.8122 1.35515 -16.8724 0.319763 2.56015 38.0069 3.42752 -4.68328 -17.5581 0.0 0.0 -0.0 0.0 -0.0 44.7514 15.8049 1.39007 -26.7983 -0.153323 -4.07228 7.42392 -28.5416 1.13613 11.9822 -0.0 -0.0 0.0 0.0 0.0 
